# xmcd
#
# Track frame offsets: 
#        150
#        29928
#        48859
#        69240
#        86423
#        108716
#        128086
#        154765
#        169964
#        182031
#
# Disc length: 2745 seconds
#
# Revision: 1
# Processed by: cddbd v1.5.2PL0 Copyright (c) Steve Scherf et al.
# Submitted via: ExactAudioCopy v1.0b3
#
DISCID=850ab70a
DTITLE=A Tribute To Danny - Tim Gonzalez and Friends
DYEAR=2003
DGENRE=Blues
TTITLE0=Murdered By Love
TTITLE1=Groove Thang
TTITLE2=Voodoo Moon
TTITLE3=Straight From The Heart (a tribute to Danny)
TTITLE4=Summertime
TTITLE5=Greyhound Driver
TTITLE6=Walkin Blues
TTITLE7=Can't Hold Out
TTITLE8=For Mona's Love
TTITLE9=Mississippi Blues
EXTD=Bluesfestradio.com
EXTT0=
EXTT1=
EXTT2=
EXTT3=
EXTT4=
EXTT5=
EXTT6=
EXTT7=
EXTT8=
EXTT9=
PLAYORDER=
